<svg width="14" height="17" viewBox="0 0 14 17" fill="none" xmlns="http://www.w3.org/2000/svg">
<path d="M13.0748 12.9084L11.9998 11.8334V7.66671C11.9998 5.10837 10.6331 2.96671 8.2498 2.40004V1.83337C8.2498 1.14171 7.69147 0.583374 6.9998 0.583374C6.30813 0.583374 5.7498 1.14171 5.7498 1.83337V2.40004C3.35813 2.96671 1.9998 5.10004 1.9998 7.66671V11.8334L0.924799 12.9084C0.399799 13.4334 0.766465 14.3334 1.50813 14.3334H12.4831C13.2331 14.3334 13.5998 13.4334 13.0748 12.9084ZM10.3331 12.6667H3.66647V7.66671C3.66647 5.60004 4.9248 3.91671 6.9998 3.91671C9.0748 3.91671 10.3331 5.60004 10.3331 7.66671V12.6667ZM6.9998 16.8334C7.91647 16.8334 8.66647 16.0834 8.66647 15.1667H5.33313C5.33313 16.0834 6.0748 16.8334 6.9998 16.8334Z" fill="#9F9BB9"/>
</svg>
