<svg width="124" height="51" viewBox="0 0 124 51" fill="none" xmlns="http://www.w3.org/2000/svg">
<path d="M5.23242 13.2715H12.1416C10.7012 19.79 10.6523 27.6025 11.9951 34.2676H12.5566C15.0225 34.2676 19.2705 31.3135 20.418 27.5293C20.6621 30.874 20.8818 31.9238 21.4434 35H5.23242C6.72168 28.335 6.72168 19.9365 5.23242 13.2715ZM22.127 35C23.5674 29.0186 23.5674 25.8203 22.127 19.8389H28.5479C27.083 25.8203 27.083 29.0186 28.5479 35H22.127ZM25.4229 17.4951C20.833 18.0078 20.8086 12.9053 25.4229 12.3682C30.0127 11.8555 29.9883 16.9824 25.4229 17.4951ZM30.208 19.8389H36.6289C35.7012 23.5742 35.3594 26.2109 35.5791 29.1406C35.8721 22.4756 39.3633 19.3506 42.0732 19.3506C43.3672 19.3506 44.4658 20.0586 44.9541 21.4258C46.2236 25.0146 42.7324 28.5547 46.1748 35H39.7539C38.7041 31.5332 41.585 25.6494 41.0967 22.4023C40.9746 21.5967 40.584 21.2061 40.0957 21.2061C38.3623 21.2061 35.1885 26.1133 36.6289 35H30.208C31.6484 29.0186 31.6484 25.8203 30.208 19.8389ZM53.7188 35H47.2979C48.7383 29.0186 48.7383 19.2529 47.2979 13.2715H53.7188C52.7178 17.2754 52.4004 22.9639 52.7422 28.0908C53.4014 23.208 55.9893 20.5713 58.3574 19.6924C58.7725 19.5215 59.2607 19.3994 59.7979 19.3506C64.4121 18.8379 64.0459 23.9648 59.4561 24.4775C57.6982 24.6729 56.7217 23.6963 57.1611 22.5732C57.3564 22.0605 57.3809 21.7188 57.0879 21.7188C56.9902 21.7188 56.8682 21.7432 56.7217 21.8164C55.7695 22.2803 54.7197 23.5986 54.0361 25.7471C55.501 25.6738 56.6484 25.4541 57.6982 25.1855C58.6504 27.5781 61.2139 33.1201 63.1914 35H56.7705C56.5508 33.4619 55.2568 30.4102 53.6455 27.4072C53.2793 29.3848 53.2549 32.0215 53.7188 35Z" fill="#604DCF"/>
<path d="M63.4111 27.9199C63.4111 23.1104 66.7803 19.3506 71.4922 19.3506C73.8604 19.3506 76.79 20.3516 76.9121 23.1348C77.1074 27.1631 71.0527 29.3604 68.001 29.3604C68.1475 32.0459 69.5146 34.8291 71.9561 34.6826C73.7139 34.585 72.7373 31.46 71.3701 30.459C72.6396 29.458 73.7627 29.043 74.666 29.043C76.4727 29.043 77.3027 30.7031 76.2529 32.5342C75.1543 34.3896 73.1035 35.4883 70.9795 35.4883C66.2432 35.4883 63.4111 31.9238 63.4111 27.9199ZM68.416 24.5996C68.1719 25.5273 67.9766 27.0654 67.9766 28.6523C70.3447 28.5303 72.1758 25.9668 72.6641 23.6719C73.2012 21.1572 72.6885 20.0586 71.834 20.0586C70.7598 20.0586 69.1729 21.7676 68.416 24.5996ZM81.9658 35.4883C77.7666 35.4883 77.376 29.9707 78.0596 26.9189C78.9385 23.1836 81.5264 19.3262 85.5059 19.3262C86.4824 19.3262 87.3613 19.668 87.8008 20.5713C87.6543 17.8857 87.3125 15.3467 86.7998 13.2715H93.2207C91.7559 19.2529 91.7559 29.0186 93.2207 35H86.7998C87.1416 33.6084 87.4102 31.9971 87.5811 30.2881C86.3604 33.7305 84.1143 35.4883 81.9658 35.4883ZM85.8721 20.5469C83.1377 21.5723 80.9893 31.7773 83.6504 32.9248C83.7969 32.998 83.9434 33.0225 84.1143 33.0225C85.4814 33.0225 87.2637 30.7275 87.7764 26.6748C87.9473 25.21 87.9717 23.5254 87.7275 21.6211C87.4834 20.9131 86.9707 20.4492 86.3604 20.4492C86.2139 20.4492 86.043 20.4736 85.8721 20.5469ZM94.7344 35C96.1748 29.0186 96.1748 25.8203 94.7344 19.8389H101.155C99.6904 25.8203 99.6904 29.0186 101.155 35H94.7344ZM98.0303 17.4951C93.4404 18.0078 93.416 12.9053 98.0303 12.3682C102.62 11.8555 102.596 16.9824 98.0303 17.4951ZM102.815 19.8389H109.236C108.309 23.5742 107.967 26.2109 108.187 29.1406C108.479 22.4756 111.971 19.3506 114.681 19.3506C115.975 19.3506 117.073 20.0586 117.562 21.4258C118.831 25.0146 115.34 28.5547 118.782 35H112.361C111.312 31.5332 114.192 25.6494 113.704 22.4023C113.582 21.5967 113.191 21.2061 112.703 21.2061C110.97 21.2061 107.796 26.1133 109.236 35H102.815C104.256 29.0186 104.256 25.8203 102.815 19.8389Z" fill="#0A0A0A"/>
</svg>
