<svg width="20.000000" height="20.000000" viewBox="0 0 20 20" fill="none" xmlns="http://www.w3.org/2000/svg" xmlns:xlink="http://www.w3.org/1999/xlink">
	<desc>
			Created with Pixso.
	</desc>
	<defs/>
	<path id="Vector" d="M5 12.5C3.61914 12.5 2.5 11.3807 2.5 10C2.5 8.61926 3.61914 7.5 5 7.5C6.38086 7.5 7.5 8.61926 7.5 10C7.5 11.3807 6.38086 12.5 5 12.5Z" stroke="#000000" stroke-width="2.000000" stroke-linejoin="round"/>
	<path id="Vector" d="M13.75 18.125C12.3691 18.125 11.25 17.0056 11.25 15.625C11.25 14.2443 12.3691 13.125 13.75 13.125C15.1309 13.125 16.25 14.2443 16.25 15.625C16.25 17.0056 15.1309 18.125 13.75 18.125Z" stroke="#000000" stroke-width="2.000000" stroke-linejoin="round"/>
	<path id="Vector" d="M13.75 6.875C12.3691 6.875 11.25 5.75574 11.25 4.375C11.25 2.99426 12.3691 1.875 13.75 1.875C15.1309 1.875 16.25 2.99426 16.25 4.375C16.25 5.75574 15.1309 6.875 13.75 6.875Z" stroke="#000000" stroke-width="2.000000" stroke-linejoin="round"/>
	<path id="Vector" d="M11.6484 5.72656L7.10156 8.64844" stroke="#000000" stroke-width="2.000000" stroke-linejoin="round" stroke-linecap="round"/>
	<path id="Vector" d="M7.10156 11.3516L11.6484 14.2734" stroke="#000000" stroke-width="2.000000" stroke-linejoin="round" stroke-linecap="round"/>
</svg>
