<svg width="10" height="10" viewBox="0 0 10 10" fill="none" xmlns="http://www.w3.org/2000/svg">
<path d="M5.35219 0.500012C3.40231 0.500012 1.7264 1.66431 1.03771 3.32072L0.763322 2.84507C0.691556 2.7122 0.549611 2.63051 0.396042 2.63412C0.253037 2.63723 0.122176 2.71426 0.0519842 2.83627C-0.0181985 2.9588 -0.0171435 3.10821 0.054095 3.22971L0.797084 4.53257C0.904734 4.71921 1.14378 4.78849 1.33744 4.68974L2.65877 4.02797C2.75956 3.98299 2.8366 3.89976 2.87301 3.79739C2.90942 3.69554 2.90151 3.58335 2.85137 3.48666C2.80124 3.3905 2.71312 3.31812 2.60758 3.28658C2.50204 3.25556 2.38806 3.26745 2.2915 3.32071L1.80602 3.56474C2.38648 2.23393 3.75427 1.29409 5.3521 1.29409C7.47975 1.29409 9.18944 2.95155 9.18944 4.99997C9.18944 7.0484 7.47975 8.70586 5.3521 8.70586C3.53205 8.70586 2.01554 7.48211 1.61608 5.85206C1.56384 5.63854 1.34485 5.5067 1.12638 5.5584C0.908444 5.60958 0.774408 5.82465 0.826647 6.03818C1.31371 8.024 3.16112 9.5 5.35213 9.5C7.91193 9.5 10 7.48374 10 5C10 2.51626 7.91199 0.500012 5.35219 0.500012ZM5.40284 2.4771C5.29467 2.47813 5.19177 2.52156 5.11631 2.59756C5.04085 2.67356 4.99969 2.77645 5.0018 2.88243V5.00007C5.0018 5.12054 5.05773 5.23479 5.15377 5.31028L6.50466 6.36911C6.58909 6.43476 6.69622 6.46527 6.8028 6.45338C6.90993 6.442 7.00754 6.38927 7.07509 6.30706C7.14211 6.22486 7.17324 6.11938 7.1611 6.01496C7.14949 5.91001 7.09567 5.81436 7.01124 5.7487L5.81232 4.80982V2.88249C5.81496 2.77496 5.77274 2.67103 5.69517 2.59452C5.61813 2.51852 5.5126 2.47607 5.40284 2.4771Z" fill="#BCB0F5"/>
</svg>
